<svg xmlns="http://www.w3.org/2000/svg" width="680" height="120" viewBox="0 0 680 120">
  <rect width="680" height="120" fill="#F5F0E8"/>
  <rect x="30" y="10" width="620" height="100" rx="4" fill="#FFFFFF"/>
  <rect x="30" y="10" width="620" height="100" rx="4" fill="none" stroke="#8A6D3A" stroke-width="0.6"/>
  <circle cx="95" cy="60" r="38" fill="#FFFFFF"/>
  <circle cx="95" cy="60" r="38" fill="none" stroke="#8A6D3A" stroke-width="1"/>
  <circle cx="95" cy="60" r="30" fill="none" stroke="#8A6D3A" stroke-width="0.35" stroke-dasharray="2,5"/>
  <path d="M95,47 A13,13 0 0,1 95,73" fill="none" stroke="#8A6D3A" stroke-width="1.9" stroke-linecap="round"/>
  <path d="M95,37 A23,23 0 0,1 95,83" fill="none" stroke="#8A6D3A" stroke-width="1.3" stroke-linecap="round"/>
  <path d="M95,47 A13,13 0 0,0 95,73" fill="none" stroke="#8A6D3A" stroke-width="1.9" stroke-linecap="round"/>
  <path d="M95,37 A23,23 0 0,0 95,83" fill="none" stroke="#8A6D3A" stroke-width="1.3" stroke-linecap="round"/>
  <line x1="95" y1="30" x2="95" y2="90" stroke="#1A1F3C" stroke-width="2.4" stroke-linecap="round"/>
  <line x1="74" y1="48" x2="116" y2="48" stroke="#1A1F3C" stroke-width="2.4" stroke-linecap="round"/>
  <path d="M95,20 L98,23 L95,26 L92,23 Z" fill="#8A6D3A"/>
  <path d="M95,94 L98,97 L95,100 L92,97 Z" fill="#8A6D3A"/>
  <circle cx="133" cy="60" r="2.2" fill="#8A6D3A"/>
  <circle cx="57" cy="60" r="2.2" fill="#8A6D3A"/>
  <line x1="152" y1="28" x2="152" y2="92" stroke="#8A6D3A" stroke-width="0.5" opacity="0.5"/>
  <text x="176" y="52" font-family="Georgia,'Times New Roman',serif" font-size="30" font-weight="bold" fill="#1A1F3C" letter-spacing="8">HIS VOICE</text>
  <text x="178" y="76" font-family="Georgia,'Times New Roman',serif" font-size="11" font-style="italic" fill="#7A5C28" letter-spacing="4">every word he spoke</text>
  <line x1="178" y1="84" x2="530" y2="84" stroke="#8A6D3A" stroke-width="0.4" opacity="0.4"/>
  <text x="620" y="56" text-anchor="end" font-family="Georgia,'Times New Roman',serif" font-size="10" font-style="italic" fill="#A08040" letter-spacing="1">John 1:1</text>
</svg>
