<svg xmlns="http://www.w3.org/2000/svg" width="680" height="390" viewBox="0 0 680 390">
  <rect width="680" height="390" fill="#080604"/>
  <circle cx="340" cy="165" r="115" fill="none" stroke="#C9A96E" stroke-width="0.3" opacity="0.3"/>
  <circle cx="340" cy="165" r="112" fill="none" stroke="#C9A96E" stroke-width="0.3" opacity="0.5"/>
  <circle cx="340" cy="165" r="108" fill="#0C0906"/>
  <circle cx="340" cy="165" r="108" fill="none" stroke="#C9A96E" stroke-width="1.4"/>
  <circle cx="340" cy="165" r="90" fill="none" stroke="#C9A96E" stroke-width="0.4" stroke-dasharray="2,7"/>
  <path d="M340,143 A22,22 0 0,1 340,187" fill="none" stroke="#C9A96E" stroke-width="2.2" stroke-linecap="round"/>
  <path d="M340,126 A39,39 0 0,1 340,204" fill="none" stroke="#C9A96E" stroke-width="1.6" stroke-linecap="round"/>
  <path d="M340,108 A57,57 0 0,1 340,222" fill="none" stroke="#C9A96E" stroke-width="1.1" stroke-linecap="round"/>
  <path d="M340,143 A22,22 0 0,0 340,187" fill="none" stroke="#C9A96E" stroke-width="2.2" stroke-linecap="round"/>
  <path d="M340,126 A39,39 0 0,0 340,204" fill="none" stroke="#C9A96E" stroke-width="1.6" stroke-linecap="round"/>
  <path d="M340,108 A57,57 0 0,0 340,222" fill="none" stroke="#C9A96E" stroke-width="1.1" stroke-linecap="round"/>
  <line x1="340" y1="122" x2="340" y2="208" stroke="#F5C842" stroke-width="2.8" stroke-linecap="round"/>
  <line x1="313" y1="150" x2="367" y2="150" stroke="#F5C842" stroke-width="2.8" stroke-linecap="round"/>
  <path d="M340,51 L346,57 L340,63 L334,57 Z" fill="#C9A96E"/>
  <path d="M340,267 L346,273 L340,279 L334,273 Z" fill="#C9A96E"/>
  <circle cx="448" cy="165" r="3.5" fill="#C9A96E"/>
  <circle cx="232" cy="165" r="3.5" fill="#C9A96E"/>
  <circle cx="416" cy="89" r="1.8" fill="#C9A96E" opacity="0.6"/>
  <circle cx="264" cy="89" r="1.8" fill="#C9A96E" opacity="0.6"/>
  <circle cx="416" cy="241" r="1.8" fill="#C9A96E" opacity="0.6"/>
  <circle cx="264" cy="241" r="1.8" fill="#C9A96E" opacity="0.6"/>
  <line x1="192" y1="307" x2="318" y2="307" stroke="#C9A96E" stroke-width="0.6"/>
  <circle cx="340" cy="307" r="2.8" fill="#C9A96E"/>
  <line x1="362" y1="307" x2="488" y2="307" stroke="#C9A96E" stroke-width="0.6"/>
  <text x="340" y="336" text-anchor="middle" font-family="Georgia,'Times New Roman',serif" font-size="36" font-weight="bold" fill="#E8D5A3" letter-spacing="11">HIS VOICE</text>
  <text x="340" y="360" text-anchor="middle" font-family="Georgia,'Times New Roman',serif" font-size="12" font-style="italic" fill="#8A6D3A" letter-spacing="5">every word he spoke</text>
  <line x1="240" y1="372" x2="440" y2="372" stroke="#C9A96E" stroke-width="0.4" opacity="0.5"/>
</svg>
